<svg width="57" height="15" viewBox="0 0 57 15" fill="none" xmlns="http://www.w3.org/2000/svg">
<path d="M0.997786 14.7867V0.241227H4.07307V12.2512H10.3089V14.7867H0.997786ZM25.1455 7.51395C25.1455 9.10013 24.8449 10.4496 24.2435 11.5623C23.6469 12.6749 22.8325 13.5248 21.8003 14.112C20.7729 14.6944 19.6176 14.9855 18.3344 14.9855C17.0418 14.9855 15.8818 14.692 14.8543 14.1049C13.8269 13.5177 13.0148 12.6678 12.4182 11.5551C11.8216 10.4425 11.5234 9.09539 11.5234 7.51395C11.5234 5.92778 11.8216 4.57835 12.4182 3.46566C13.0148 2.35297 13.8269 1.50543 14.8543 0.923046C15.8818 0.335924 17.0418 0.0423634 18.3344 0.0423634C19.6176 0.0423634 20.7729 0.335924 21.8003 0.923046C22.8325 1.50543 23.6469 2.35297 24.2435 3.46566C24.8449 4.57835 25.1455 5.92778 25.1455 7.51395ZM22.0276 7.51395C22.0276 6.48649 21.8737 5.62002 21.566 4.91452C21.2629 4.20903 20.8344 3.67399 20.2805 3.30941C19.7265 2.94483 19.0778 2.76253 18.3344 2.76253C17.5911 2.76253 16.9424 2.94483 16.3884 3.30941C15.8344 3.67399 15.4036 4.20903 15.0958 4.91452C14.7928 5.62002 14.6413 6.48649 14.6413 7.51395C14.6413 8.54142 14.7928 9.40789 15.0958 10.1134C15.4036 10.8189 15.8344 11.3539 16.3884 11.7185C16.9424 12.0831 17.5911 12.2654 18.3344 12.2654C19.0778 12.2654 19.7265 12.0831 20.2805 11.7185C20.8344 11.3539 21.2629 10.8189 21.566 10.1134C21.8737 9.40789 22.0276 8.54142 22.0276 7.51395ZM37.0685 4.94293C36.969 4.59729 36.8293 4.29189 36.6494 4.02674C36.4695 3.75685 36.2493 3.52958 35.9889 3.34492C35.7332 3.15553 35.4397 3.01111 35.1082 2.91168C34.7815 2.81225 34.4193 2.76253 34.0216 2.76253C33.2782 2.76253 32.6248 2.94719 32.0614 3.31651C31.5026 3.68583 31.067 4.22323 30.7545 4.92873C30.442 5.62948 30.2858 6.48649 30.2858 7.49975C30.2858 8.51301 30.4397 9.37475 30.7474 10.085C31.0552 10.7952 31.4908 11.3373 32.0542 11.7114C32.6177 12.0807 33.2829 12.2654 34.05 12.2654C34.746 12.2654 35.3402 12.1423 35.8327 11.8961C36.3298 11.6451 36.7086 11.2924 36.969 10.8378C37.2342 10.3833 37.3667 9.84587 37.3667 9.2256L37.9917 9.31793H34.2417V7.00259H40.3284V8.83498C40.3284 10.1134 40.0585 11.2119 39.5187 12.1304C38.979 13.0443 38.2356 13.7498 37.2886 14.2469C36.3417 14.7393 35.2574 14.9855 34.0358 14.9855C32.6721 14.9855 31.4742 14.6849 30.442 14.0836C29.4098 13.4775 28.6049 12.6181 28.0273 11.5054C27.4543 10.388 27.1679 9.06225 27.1679 7.52816C27.1679 6.34918 27.3383 5.29805 27.6792 4.37475C28.0249 3.44672 28.5078 2.66074 29.1281 2.0168C29.7484 1.37286 30.4704 0.882799 31.2943 0.546625C32.1182 0.21045 33.0107 0.0423634 33.9719 0.0423634C34.7957 0.0423634 35.5628 0.163102 36.273 0.40458C36.9832 0.641322 37.613 0.977496 38.1622 1.4131C38.7162 1.84871 39.1684 2.36717 39.5187 2.9685C39.8691 3.56509 40.094 4.22323 40.1935 4.94293H37.0685ZM56.0049 7.51395C56.0049 9.10013 55.7042 10.4496 55.1029 11.5623C54.5063 12.6749 53.6919 13.5248 52.6597 14.112C51.6323 14.6944 50.477 14.9855 49.1938 14.9855C47.9012 14.9855 46.7412 14.692 45.7137 14.1049C44.6862 13.5177 43.8742 12.6678 43.2776 11.5551C42.681 10.4425 42.3827 9.09539 42.3827 7.51395C42.3827 5.92778 42.681 4.57835 43.2776 3.46566C43.8742 2.35297 44.6862 1.50543 45.7137 0.923046C46.7412 0.335924 47.9012 0.0423634 49.1938 0.0423634C50.477 0.0423634 51.6323 0.335924 52.6597 0.923046C53.6919 1.50543 54.5063 2.35297 55.1029 3.46566C55.7042 4.57835 56.0049 5.92778 56.0049 7.51395ZM52.887 7.51395C52.887 6.48649 52.7331 5.62002 52.4253 4.91452C52.1223 4.20903 51.6938 3.67399 51.1398 3.30941C50.5859 2.94483 49.9372 2.76253 49.1938 2.76253C48.4504 2.76253 47.8018 2.94483 47.2478 3.30941C46.6938 3.67399 46.2629 4.20903 45.9552 4.91452C45.6521 5.62002 45.5006 6.48649 45.5006 7.51395C45.5006 8.54142 45.6521 9.40789 45.9552 10.1134C46.2629 10.8189 46.6938 11.3539 47.2478 11.7185C47.8018 12.0831 48.4504 12.2654 49.1938 12.2654C49.9372 12.2654 50.5859 12.0831 51.1398 11.7185C51.6938 11.3539 52.1223 10.8189 52.4253 10.1134C52.7331 9.40789 52.887 8.54142 52.887 7.51395Z" fill="white"/>
</svg>
